<?xml version="1.0" encoding="utf-8"?>
<!-- Uploaded to: SVG Repo, www.svgrepo.com, Generator: SVG Repo Mixer Tools -->
<svg width="800px" height="800px" viewBox="0 -43.5 1111 1111" class="icon"  version="1.1" xmlns="http://www.w3.org/2000/svg"><path d="M672.914286 144.091429c-1.462857-0.731429 212.114286 196.022857 212.114285 196.022857V775.314286h87.771429v-452.022857s-264.777143-264.045714-266.24-264.777143H277.942857c-48.274286 0-87.771429 39.497143-87.771428 87.771428h87.771428s397.897143-0.731429 394.971429-2.194285z m-394.971429 711.68v-629.028572h-87.771428v629.028572c0 48.274286 39.497143 87.771429 87.771428 87.771428h607.085714c48.274286 0 87.771429-39.497143 87.771429-87.771428h-87.771429-607.085714z" fill="#0C92F2" /><path d="M365.714286 504.685714h424.228571v263.314286h-424.228571z" fill="#A8C8E6" /><path d="M365.714286 680.228571h424.228571v87.771429h-424.228571z" fill="#61B6F2" /><path d="M365.714286 504.685714h424.228571v87.771429h-424.228571z" fill="#FC830A" /><path d="M869.668571 345.234286l-12.434285-33.645715-2.925715 51.2 43.885715-40.96h-237.714286l43.885714 43.885715 0.731429-263.314286h-14.628572l-31.451428 30.72 210.651428 212.114286z m-161.645714-287.451429h-90.697143l-0.731428 351.085714h322.56l6.582857-111.908571-237.714286-239.177143z" fill="#0C92F2" /></svg>