<svg width="14" height="14" viewBox="0 0 14 14" fill="none" xmlns="http://www.w3.org/2000/svg">
<path d="M1.04 8.97333H3.6L4.29333 9.98667H0.56L0.0266666 9.50667V0.493333L0.56 0.0133333H12.56L13.04 0.493333V5.29333L12.0267 3.53333V0.973333H1.04V8.97333ZM6.58667 9.98667L5.14667 13.4533H7.38667L12.9867 7.69333L12.2933 5.98667H10.64L11.44 4.54667L10.64 3H7.76L6.85333 3.58667L4.56 8.6L5.46667 9.98667H6.58667ZM7.76 4.01333H10.64L8.77333 7H12.2933L6.53333 12.8133L8.18667 8.97333H5.46667L7.76 4.01333ZM4.93333 5.98667H2.05333V4.97333H5.41333L4.93333 5.98667ZM4.02667 8.01333H2.05333V7H4.50667L4.02667 8.01333Z" fill="#CCCCCC"/>
</svg>
