<?xml version="1.0" encoding="iso-8859-1"?>
<!-- Uploaded to: SVG Repo, www.svgrepo.com, Generator: SVG Repo Mixer Tools -->
<svg height="800px" width="800px" version="1.1" id="Layer_1" xmlns="http://www.w3.org/2000/svg" xmlns:xlink="http://www.w3.org/1999/xlink" 
	 viewBox="0 0 390.331 390.331" xml:space="preserve">
<path style="fill:#FFC10D;" d="M120.307,223.521c0-56.889,46.093-102.982,102.982-102.982c11.895,0,22.756,2.198,33.616,5.947
	V32.749c0-5.947-4.848-10.861-10.861-10.861h-53.657v53.657c0,4.848-3.232,9.244-8.145,10.279l-28.186,8.145
	c-3.814,0.517-7.046,0-9.244-1.616l-20.622-14.61L101.366,90.22c-6.529,3.232-15.709-0.517-15.709-9.762V21.954H32.517
	c-5.947,0-10.861,4.848-10.861,10.861v86.691h40.081c5.947,0,10.861,4.848,10.861,10.861s-4.848,10.861-10.861,10.861H21.657v23.273
	h17.907c5.947,0,10.861,4.848,10.861,10.861s-4.848,10.861-10.861,10.861H21.657v42.279c0,5.947,4.848,10.861,10.861,10.861h89.406
	C120.824,234.382,120.307,228.951,120.307,223.521z"/>
<g>
	<path style="fill:#56ACE0;" d="M223.289,304.782c44.412,0,81.325-36.331,81.325-81.325c0-23.273-9.762-44.412-25.988-59.087v63.935
		c0,17.907-14.61,32.517-32.517,32.517h-94.901C164.784,286.939,191.871,304.782,223.289,304.782z"/>
	<path style="fill:#56ACE0;" d="M246.044,239.23c5.947,0,10.861-4.848,10.861-10.861v-78.545
		c-10.279-4.848-21.657-7.564-33.616-7.564c-44.412,0-81.325,36.331-81.325,81.325c0,5.43,0.517,10.861,1.616,15.709L246.044,239.23
		L246.044,239.23z M208.679,181.242c0-5.947,4.848-10.861,10.861-10.861s10.861,4.848,10.861,10.861v18.941
		c0,5.947-4.848,10.861-10.861,10.861s-10.861-4.848-10.861-10.861V181.242z M175.063,181.242c0-5.947,4.848-10.861,10.861-10.861
		c6.012,0,10.861,4.848,10.861,10.861v18.941c0,5.947-4.848,10.861-10.861,10.861c-6.012,0-10.861-4.848-10.861-10.861V181.242z"/>
</g>
<path style="fill:#FFC10D;" d="M305.131,284.741L305.131,284.741c-5.947,7.564-12.994,14.61-20.622,20.622l0,0l58.505,58.505
	c5.43,5.43,15.192,5.43,20.622,0c5.947-5.43,5.43-14.093,0-20.622L305.131,284.741z"/>
<path style="fill:#FFFFFF;" d="M133.883,56.604l21.657,15.192l15.192-4.331V21.954H107.83v41.18l14.61-7.564
	C126.836,53.889,130.586,54.406,133.883,56.604z"/>
<g>
	<path style="fill:#194F82;" d="M379.345,328.636L316.509,265.8c5.947-12.994,9.244-27.087,9.244-42.279
		c0-36.331-18.941-68.267-47.709-86.691V32.749c0-17.907-14.61-32.517-32.517-32.517H32.517C14.61,0.232,0,14.842,0,32.749v195.62
		c0,17.907,14.61,32.517,32.517,32.517h94.836c15.192,37.947,52.04,65.034,95.418,65.034c15.192,0,29.285-3.232,42.279-9.244
		l62.836,62.836c14.61,15.192,37.947,12.994,51.459,0C394.537,364.968,393.438,342.729,379.345,328.636z M107.83,21.889h62.836V67.4
		l-15.192,4.331l-21.657-15.192c-3.232-2.198-7.046-2.715-11.378-1.099l-14.61,7.628V21.889z M121.923,239.23H32.517
		c-5.947,0-10.861-4.848-10.861-10.861v-42.279h17.907c5.947,0,10.861-4.848,10.861-10.861c0-5.947-4.848-10.861-10.861-10.861
		H21.657v-23.273h40.081c5.947,0,10.861-4.848,10.861-10.861s-4.848-10.861-10.861-10.861H21.657V32.749
		c0-5.947,4.848-10.861,10.861-10.861h53.657v59.087c0,8.663,9.244,12.994,15.709,9.762l24.954-12.477l20.622,14.61
		c2.198,1.616,5.43,2.198,9.244,1.616l28.186-8.145c4.848-1.099,8.145-5.43,8.145-10.279V21.889h53.657
		c5.947,0,10.861,4.848,10.861,10.861v93.737c-10.279-3.814-21.657-5.947-33.616-5.947c-56.889,0-102.982,46.093-102.982,102.982
		C120.824,228.951,121.406,234.382,121.923,239.23z M143.644,239.23c-1.099-4.848-1.616-10.279-1.616-15.709
		c0-44.994,36.331-81.325,81.325-81.325c11.895,0,23.273,2.715,33.616,7.564v78.61c0,5.947-4.848,10.861-10.861,10.861H143.644z
		 M223.289,304.782c-31.418,0-57.988-17.907-72.081-43.378h94.836v-0.517c17.907,0,32.517-14.61,32.517-32.517v-63.935
		c15.709,14.61,25.988,35.749,25.988,59.087C304.549,267.933,268.283,304.782,223.289,304.782z M364.218,364.45
		c-5.43,5.43-15.192,5.43-20.622,0l-59.087-58.57c7.564-5.947,14.61-12.994,20.622-20.622l58.505,58.505
		C369.648,350.358,369.648,359.02,364.218,364.45z"/>
	<path style="fill:#194F82;" d="M185.859,170.382c-5.947,0-10.861,4.848-10.861,10.861v18.941c0,6.529,4.848,10.861,10.861,10.861
		s10.861-4.848,10.861-10.861v-18.941C196.719,175.295,191.871,170.382,185.859,170.382z"/>
	<path style="fill:#194F82;" d="M219.475,170.382c-5.947,0-10.861,4.848-10.861,10.861v18.941c0,6.529,4.331,10.861,10.861,10.861
		c5.947,0,10.861-4.848,10.861-10.861v-18.941C230.335,175.295,225.422,170.382,219.475,170.382z"/>
</g>
</svg>