<svg width="12" height="13" viewBox="0 0 12 13" fill="none" xmlns="http://www.w3.org/2000/svg">
<path d="M0.38 6.62V6.44C0.393334 6.33333 0.426667 6.24 0.48 6.16C0.52 6.10667 0.58 6.03333 0.66 5.94L0.82 5.76L3.94 2.62L3.96 2.64C3.98667 2.64 4 2.65333 4 2.68L5.12 3.82C5.18667 3.87333 5.18667 3.93333 5.12 4C5.09333 4.18667 5.11333 4.36667 5.18 4.54C5.24667 4.71333 5.35333 4.84667 5.5 4.94C5.55333 4.96667 5.58667 5 5.6 5.04C5.61333 5.06667 5.62 5.11333 5.62 5.18V7.94C5.62 8.02 5.58 8.1 5.5 8.18C5.34 8.28667 5.22 8.42667 5.14 8.6C5.07333 8.77333 5.06667 8.95333 5.12 9.14C5.18667 9.31333 5.29333 9.46 5.44 9.58C5.58667 9.7 5.75333 9.76 5.94 9.76C6.12667 9.76 6.29333 9.70667 6.44 9.6C6.58667 9.49333 6.68667 9.35333 6.74 9.18C6.80667 8.99333 6.81333 8.81333 6.76 8.64C6.70667 8.46667 6.6 8.31333 6.44 8.18C6.38667 8.15333 6.35333 8.12667 6.34 8.1C6.32667 8.06 6.32 8.00667 6.32 7.94V5.12H6.38L7.38 6.12C7.40667 6.14667 7.42 6.18 7.42 6.22L7.44 6.26V6.62C7.46667 6.87333 7.57333 7.07333 7.76 7.22C7.96 7.35333 8.18667 7.40667 8.44 7.38C8.69333 7.34 8.89333 7.21333 9.04 7C9.2 6.78667 9.24667 6.56 9.18 6.32C9.15333 6.10667 9.03333 5.93333 8.82 5.8C8.62 5.65333 8.40667 5.59333 8.18 5.62C8.1 5.62 8.02 5.6 7.94 5.56L6.88 4.5C6.84 4.46 6.82 4.4 6.82 4.32C6.86 4.13333 6.83333 3.95333 6.74 3.78C6.64667 3.60667 6.51333 3.48 6.34 3.4C6.16667 3.30667 5.99333 3.28 5.82 3.32C5.68667 3.32 5.62 3.3 5.62 3.26C5.12667 2.75333 4.75333 2.39333 4.5 2.18C4.43333 2.12667 4.43333 2.06667 4.5 2C4.64667 1.89333 4.83333 1.70667 5.06 1.44L5.32 1.18C5.69333 0.806666 6.06667 0.806666 6.44 1.18L11.18 5.94C11.5667 6.31333 11.5667 6.68667 11.18 7.06L6.54 11.72C6.42 11.84 6.33333 11.92 6.28 11.96C6.17333 12.0533 6.06 12.1067 5.94 12.12H5.82L5.72 12.08C5.56 12.0133 5.44667 11.9467 5.38 11.88L5 11.5C4.62667 11.1533 4.35333 10.88 4.18 10.68L0.76 7.26C0.733334 7.19333 0.673334 7.10667 0.58 7C0.46 6.84 0.393334 6.71333 0.38 6.62Z" fill="#D4D7D6"/>
</svg>
