<svg viewBox="-3.08 -3.08 34.16 34.16" version="1.1" xmlns="http://www.w3.org/2000/svg" xmlns:xlink="http://www.w3.org/1999/xlink" xmlns:sketch="http://www.bohemiancoding.com/sketch/ns" fill="#000000"><g id="SVGRepo_bgCarrier" stroke-width="0"></g><g id="SVGRepo_tracerCarrier" stroke-linecap="round" stroke-linejoin="round"></g><g id="SVGRepo_iconCarrier"> <title>stop</title> <desc>Created with Sketch Beta.</desc> <defs> </defs> <g id="Page-1" stroke="none" stroke-width="1" fill="none" fill-rule="evenodd" sketch:type="MSPage"> <g id="Icon-Set" sketch:type="MSLayerGroup" transform="translate(-518.000000, -569.000000)" fill="#ffffff"> <path d="M544,594 C544,594.553 543.553,595 543,595 L521,595 C520.447,595 520,594.553 520,594 L520,572 C520,571.448 520.447,571 521,571 L543,571 C543.553,571 544,571.448 544,572 L544,594 L544,594 Z M544,569 L520,569 C518.896,569 518,569.896 518,571 L518,595 C518,596.104 518.896,597 520,597 L544,597 C545.104,597 546,596.104 546,595 L546,571 C546,569.896 545.104,569 544,569 L544,569 Z" id="stop" sketch:type="MSShapeGroup"> </path> </g> </g> </g></svg>