<svg width="14" height="14" viewBox="0 0 14 11" fill="none" xmlns="http://www.w3.org/2000/svg">
<path d="M0.493333 0.493333C0.564444 0.386666 0.671111 0.333333 0.813333 0.333333C0.955556 0.333333 1.08 0.386666 1.18667 0.493333L6.73333 6.04L13.56 12.8667C13.6311 12.9733 13.6667 13.0978 13.6667 13.24C13.6667 13.3467 13.6133 13.4533 13.5067 13.56C13.4356 13.6311 13.3289 13.6667 13.1867 13.6667C13.0444 13.6667 12.92 13.6133 12.8133 13.5067L8.86667 9.56C8.33333 10.0933 7.69333 10.36 6.94667 10.36C6.23556 10.36 5.61333 10.0933 5.08 9.56C4.58222 9.02667 4.33333 8.40444 4.33333 7.69333C4.33333 6.94667 4.58222 6.32444 5.08 5.82667L3.90667 4.6C3.30222 4.99111 2.78667 5.47111 2.36 6.04C1.96889 6.60889 1.68444 7.24889 1.50667 7.96C1.47111 8.10222 1.38222 8.20889 1.24 8.28C1.13333 8.35111 1.00889 8.36889 0.866667 8.33333C0.76 8.29778 0.671111 8.22667 0.6 8.12C0.528889 7.97778 0.511111 7.83556 0.546667 7.69333C0.724445 6.91111 1.04444 6.2 1.50667 5.56C1.96889 4.88444 2.52 4.31556 3.16 3.85333L0.44 1.13333C0.368889 1.02667 0.333333 0.92 0.333333 0.813333C0.333333 0.67111 0.386667 0.564444 0.493333 0.493333ZM5.82667 6.52C5.50667 6.84 5.34667 7.23111 5.34667 7.69333C5.34667 8.12 5.50667 8.51111 5.82667 8.86667C6.14667 9.18667 6.53778 9.34667 7 9.34667C7.46222 9.34667 7.85333 9.18667 8.17333 8.86667L5.82667 6.52ZM7 2.68C7.99556 2.68 8.93778 2.89333 9.82667 3.32C10.7511 3.74667 11.5156 4.35111 12.12 5.13333C12.76 5.88 13.2044 6.73333 13.4533 7.69333C13.4889 7.83556 13.4711 7.97778 13.4 8.12C13.3289 8.22667 13.2222 8.29778 13.08 8.33333C12.9733 8.36889 12.8489 8.35111 12.7067 8.28C12.6 8.20889 12.5289 8.10222 12.4933 7.96C12.1733 6.71556 11.4978 5.68444 10.4667 4.86667C9.47111 4.04889 8.31556 3.64 7 3.64C6.64444 3.64 6.27111 3.69333 5.88 3.8L5.08 2.94667C5.68444 2.76889 6.32444 2.68 7 2.68ZM7.10667 5.02667C7.81778 5.06222 8.40444 5.32889 8.86667 5.82667C9.36444 6.28889 9.63111 6.85778 9.66667 7.53333L7.10667 5.02667Z" fill="#CCCCCC"/>
</svg>
